<svg xmlns="http://www.w3.org/2000/svg" width="19.800" height="19.800" viewBox="0 0 19.800 19.800" fill="none">
  <path d="M 10.9 13.9 C 10.9 14.452 10.452 14.9 9.9 14.9 C 9.348 14.9 8.9 14.452 8.9 13.9 C 8.9 13.348 9.348 12.9 9.9 12.9 C 10.452 12.9 10.9 13.348 10.9 13.9 Z" fill="currentColor" fill-rule="nonzero"/>
  <path d="M 10.8 5.9 C 10.8 5.403 10.397 5 9.9 5 C 9.403 5 9 5.403 9 5.9 L 9 10.4 C 9 10.897 9.403 11.3 9.9 11.3 C 10.397 11.3 10.8 10.897 10.8 10.4 L 10.8 5.9 Z" fill="currentColor" fill-rule="nonzero"/>
  <path d="M 0 9.9 C 0 4.432 4.432 0 9.9 0 C 15.368 0 19.8 4.432 19.8 9.9 C 19.8 15.368 15.368 19.8 9.9 19.8 C 4.432 19.8 0 15.368 0 9.9 Z M 9.9 1.8 C 5.426 1.8 1.8 5.426 1.8 9.9 C 1.8 14.374 5.426 18 9.9 18 C 14.373 18 18 14.374 18 9.9 C 18 5.426 14.373 1.8 9.9 1.8 Z" fill="currentColor" fill-rule="evenodd"/>
</svg>
