<svg xmlns="http://www.w3.org/2000/svg" width="11.700" height="19.800" viewBox="0 0 11.700 19.800" fill="none">
  <path d="M 4.2 1.8 C 2.875 1.8 1.8 2.875 1.8 4.2 L 1.8 13.95 C 1.8 16.187 3.613 18 5.85 18 C 8.087 18 9.9 16.187 9.9 13.95 L 9.9 3.83 C 9.9 3.333 10.303 2.93 10.8 2.93 C 11.297 2.93 11.7 3.333 11.7 3.83 L 11.7 13.95 C 11.7 17.181 9.081 19.8 5.85 19.8 C 2.619 19.8 0 17.181 0 13.95 L 0 4.2 C 0 1.88 1.88 0 4.2 0 C 6.52 0 8.4 1.88 8.4 4.2 L 8.4 13.901 C 8.4 15.309 7.258 16.451 5.85 16.451 C 4.442 16.451 3.3 15.309 3.3 13.901 L 3.3 5.086 C 3.3 4.589 3.703 4.186 4.2 4.186 C 4.697 4.186 5.1 4.589 5.1 5.086 L 5.1 13.901 C 5.1 14.315 5.436 14.651 5.85 14.651 C 6.264 14.651 6.6 14.315 6.6 13.901 L 6.6 4.2 C 6.6 2.875 5.525 1.8 4.2 1.8 Z" fill="currentColor" fill-rule="nonzero"/>
</svg>
