<svg xmlns="http://www.w3.org/2000/svg" width="18.325" height="19.800" viewBox="0 0 18.325 19.800" fill="none">
  <path d="M 3.851 2.274 C 5.108 0.788 6.938 0 9.163 0 C 11.388 0 13.217 0.788 14.475 2.274 C 15.715 3.74 16.313 5.783 16.313 8.15 L 16.313 8.9 C 16.313 11.365 16.996 12.825 17.969 13.768 C 18.351 14.138 18.39 14.65 18.254 15.026 C 18.115 15.409 17.735 15.8 17.163 15.8 L 1.162 15.8 C 0.591 15.8 0.21 15.409 0.072 15.026 C -0.065 14.65 -0.025 14.138 0.356 13.768 C 1.33 12.825 2.013 11.365 2.013 8.9 L 2.013 8.15 C 2.013 5.783 2.611 3.74 3.851 2.274 Z" fill="currentColor" fill-rule="nonzero"/>
  <path d="M 6.263 18.9 C 6.263 18.403 6.666 18 7.163 18 L 11.163 18 C 11.66 18 12.063 18.403 12.063 18.9 C 12.063 19.397 11.66 19.8 11.163 19.8 L 7.163 19.8 C 6.666 19.8 6.263 19.397 6.263 18.9 Z" fill="currentColor" fill-rule="nonzero"/>
</svg>
