<svg xmlns="http://www.w3.org/2000/svg" width="19.800" height="18.800" viewBox="0 0 19.800 18.800" fill="none">
  <path d="M 7.47 0 L 12.33 0 C 12.584 0 12.826 0 13.03 0.016 C 13.252 0.035 13.507 0.077 13.762 0.207 C 14.12 0.389 14.411 0.68 14.593 1.037 C 14.723 1.292 14.765 1.547 14.783 1.77 C 14.8 1.974 14.8 2.216 14.8 2.47 L 14.8 3.5 L 15.735 3.5 C 16.265 3.5 16.716 3.5 17.087 3.53 C 17.476 3.562 17.854 3.632 18.216 3.816 C 18.762 4.094 19.206 4.538 19.484 5.083 C 19.668 5.445 19.738 5.824 19.77 6.213 C 19.8 6.583 19.8 7.035 19.8 7.564 L 19.8 14.735 C 19.8 15.265 19.8 15.716 19.77 16.087 C 19.738 16.476 19.668 16.855 19.484 17.216 C 19.206 17.762 18.762 18.206 18.216 18.484 C 17.854 18.668 17.476 18.738 17.087 18.77 C 16.716 18.8 16.265 18.8 15.735 18.8 L 4.064 18.8 C 3.535 18.8 3.083 18.8 2.713 18.77 C 2.324 18.738 1.945 18.668 1.583 18.484 C 1.038 18.206 0.594 17.762 0.316 17.216 C 0.131 16.855 0.062 16.476 0.03 16.087 C 0 15.716 0 15.265 0 14.735 L 0 7.564 C 0 7.035 0 6.583 0.03 6.213 C 0.062 5.824 0.131 5.445 0.316 5.083 C 0.594 4.538 1.038 4.094 1.583 3.816 C 1.945 3.632 2.324 3.562 2.713 3.53 C 3.083 3.5 3.535 3.5 4.064 3.5 L 5 3.5 L 5 2.47 C 5 2.216 5 1.974 5.016 1.77 C 5.035 1.547 5.077 1.292 5.207 1.037 C 5.389 0.68 5.68 0.389 6.037 0.207 C 6.292 0.077 6.547 0.035 6.77 0.016 C 6.974 0 7.216 0 7.47 0 Z M 6.8 3.5 L 13 3.5 L 13 1.9 C 13 1.845 12.955 1.8 12.9 1.8 L 6.9 1.8 C 6.844 1.8 6.8 1.845 6.8 1.9 L 6.8 3.5 Z M 6.9 8 C 6.403 8 6 8.403 6 8.9 C 6 9.397 6.403 9.8 6.9 9.8 L 12.9 9.8 C 13.397 9.8 13.8 9.397 13.8 8.9 C 13.8 8.403 13.397 8 12.9 8 L 6.9 8 Z" fill="currentColor" fill-rule="evenodd"/>
</svg>
