<svg xmlns="http://www.w3.org/2000/svg" width="19.300" height="19.300" viewBox="0 0 19.300 19.300" fill="none">
  <path d="M 9.65 0 C 4.32 0 0 4.32 0 9.65 C 0 14.979 4.32 19.3 9.65 19.3 C 11.188 19.3 12.645 18.939 13.937 18.297 L 15.749 18.792 C 16.16 18.904 16.525 19.003 16.826 19.057 C 17.131 19.11 17.517 19.147 17.902 19 C 18.408 18.807 18.807 18.408 19 17.902 C 19.147 17.517 19.11 17.131 19.056 16.826 C 19.003 16.526 18.904 16.16 18.792 15.75 L 18.297 13.937 C 18.939 12.645 19.3 11.188 19.3 9.65 C 19.3 4.32 14.979 0 9.65 0 Z" fill="currentColor" fill-rule="nonzero"/>
</svg>
