<svg xmlns="http://www.w3.org/2000/svg" width="18.800" height="19.800" viewBox="0 0 18.800 19.800" fill="none">
  <path d="M 3.267 0 L 9.533 0 C 9.925 0 10.271 0 10.558 0.023 C 10.864 0.048 11.181 0.104 11.49 0.262 C 11.941 0.492 12.308 0.859 12.538 1.31 C 12.696 1.619 12.752 1.936 12.777 2.242 C 12.8 2.529 12.8 2.875 12.8 3.267 L 12.8 8 L 15.533 8 C 15.925 8 16.271 8 16.558 8.023 C 16.864 8.048 17.181 8.104 17.49 8.262 C 17.941 8.492 18.308 8.859 18.538 9.31 C 18.696 9.619 18.752 9.936 18.777 10.242 C 18.8 10.529 18.8 10.875 18.8 11.267 L 18.8 19.8 L 13.8 19.8 L 13.8 15.65 C 13.8 15.153 13.397 14.75 12.9 14.75 C 12.403 14.75 12 15.153 12 15.65 L 12 19.8 L 11.921 19.8 L 11.9 19.8 L 11.879 19.8 L 0 19.8 L 0 3.267 C 0 2.875 0 2.529 0.023 2.242 C 0.048 1.936 0.104 1.619 0.262 1.31 C 0.492 0.859 0.859 0.492 1.31 0.262 C 1.619 0.104 1.936 0.048 2.242 0.023 C 2.529 0 2.875 0 3.267 0 Z M 3.5 8.9 C 3.5 8.403 3.903 8 4.4 8 L 8.4 8 C 8.897 8 9.3 8.403 9.3 8.9 C 9.3 9.397 8.897 9.8 8.4 9.8 L 4.4 9.8 C 3.903 9.8 3.5 9.397 3.5 8.9 Z M 3.5 4.9 C 3.5 4.403 3.903 4 4.4 4 L 8.4 4 C 8.897 4 9.3 4.403 9.3 4.9 C 9.3 5.397 8.897 5.8 8.4 5.8 L 4.4 5.8 C 3.903 5.8 3.5 5.397 3.5 4.9 Z" fill="currentColor" fill-rule="evenodd"/>
</svg>
