<svg xmlns="http://www.w3.org/2000/svg" width="19.800" height="19.799" viewBox="0 0 19.800 19.799" fill="none">
  <path d="M 4.065 0 C 3.535 0 3.084 0 2.713 0.03 C 2.324 0.062 1.945 0.132 1.583 0.316 C 1.038 0.594 0.594 1.038 0.316 1.583 C 0.132 1.945 0.062 2.324 0.03 2.713 C 0 3.084 0 3.535 0 4.064 L 0 11.735 C 0 12.265 0 12.716 0.03 13.087 C 0.062 13.476 0.132 13.855 0.316 14.217 C 0.594 14.762 1.038 15.206 1.583 15.484 C 1.945 15.668 2.324 15.738 2.713 15.77 C 3.084 15.8 3.535 15.8 4.065 15.8 L 11.735 15.8 C 12.265 15.8 12.716 15.8 13.087 15.77 C 13.476 15.738 13.855 15.668 14.217 15.484 C 14.762 15.206 15.206 14.762 15.484 14.217 C 15.668 13.855 15.738 13.476 15.77 13.087 C 15.8 12.716 15.8 12.265 15.8 11.735 L 15.8 4.065 C 15.8 3.535 15.8 3.084 15.77 2.713 C 15.738 2.324 15.668 1.945 15.484 1.583 C 15.206 1.038 14.762 0.594 14.217 0.316 C 13.855 0.132 13.476 0.062 13.087 0.03 C 12.716 0 12.265 0 11.735 0 L 4.065 0 Z M 2.56 1.854 C 2.692 1.811 2.885 1.8 3.7 1.8 L 12.1 1.8 C 12.914 1.8 13.108 1.811 13.24 1.854 C 13.575 1.963 13.837 2.226 13.946 2.56 C 13.989 2.692 14 2.886 14 3.7 L 14 12.1 C 14 12.915 13.989 13.109 13.946 13.24 C 13.837 13.575 13.575 13.838 13.24 13.947 C 13.108 13.989 12.914 14 12.1 14 L 3.7 14 C 2.885 14 2.692 13.989 2.56 13.947 C 2.225 13.838 1.963 13.575 1.854 13.24 C 1.811 13.109 1.8 12.915 1.8 12.1 L 1.8 3.7 C 1.8 2.886 1.811 2.692 1.854 2.56 C 1.963 2.226 2.225 1.963 2.56 1.854 Z" fill="currentColor" fill-rule="evenodd"/>
  <path d="M 19.8 6.8 C 19.8 6.303 19.397 5.9 18.9 5.9 C 18.403 5.9 18 6.303 18 6.8 L 18 16.101 C 18 16.916 17.989 17.11 17.946 17.241 C 17.837 17.576 17.574 17.839 17.24 17.948 C 17.108 17.99 16.914 18.001 16.1 18.001 L 6.799 18.001 C 6.302 18.001 5.9 18.404 5.9 18.9 C 5.9 19.397 6.302 19.799 6.799 19.799 L 15.736 19.799 C 16.265 19.799 16.717 19.799 17.087 19.769 C 17.476 19.737 17.855 19.668 18.217 19.483 C 18.762 19.205 19.206 18.762 19.484 18.216 C 19.668 17.854 19.738 17.475 19.77 17.086 C 19.8 16.716 19.8 16.265 19.8 15.735 L 19.8 6.8 Z" fill="currentColor" fill-rule="nonzero"/>
</svg>
