<svg xmlns="http://www.w3.org/2000/svg" width="16.300" height="19.800" viewBox="0 0 16.300 19.800" fill="none">
  <path d="M 8.8 0 C 8.796 0 8.792 0 8.787 0 L 8.737 0 L 4.065 0 C 3.535 0 3.084 0 2.713 0.03 C 2.324 0.062 1.945 0.132 1.583 0.316 C 1.038 0.594 0.594 1.038 0.316 1.584 C 0.132 1.945 0.062 2.324 0.03 2.713 C 0 3.084 0 3.535 0 4.065 L 0 15.736 C 0 16.265 0 16.717 0.03 17.087 C 0.062 17.476 0.132 17.855 0.316 18.217 C 0.594 18.762 1.038 19.206 1.583 19.484 C 1.945 19.668 2.324 19.738 2.713 19.77 C 3.084 19.8 3.535 19.8 4.065 19.8 L 12.235 19.8 C 12.765 19.8 13.216 19.8 13.587 19.77 C 13.976 19.738 14.355 19.668 14.717 19.484 C 15.262 19.206 15.706 18.762 15.984 18.217 C 16.168 17.855 16.238 17.476 16.27 17.087 C 16.3 16.717 16.3 16.265 16.3 15.736 L 16.3 7.75 L 11.222 7.75 C 10.966 7.75 10.726 7.75 10.524 7.734 C 10.305 7.716 10.057 7.674 9.81 7.548 C 9.462 7.371 9.179 7.088 9.002 6.74 C 8.876 6.493 8.835 6.245 8.817 6.026 C 8.8 5.824 8.8 5.584 8.8 5.329 L 8.8 0 Z" fill="currentColor" fill-rule="nonzero"/>
  <path d="M 10.5 0.728 L 10.505 0.732 L 15.815 6.05 L 10.65 6.05 C 10.568 6.05 10.5 5.983 10.5 5.9 L 10.5 0.728 Z" fill="currentColor" fill-rule="nonzero"/>
</svg>
