<svg xmlns="http://www.w3.org/2000/svg" width="18.300" height="18.550" viewBox="0 0 18.300 18.550" fill="none">
  <path d="M 9.15 0 C 9.647 0 10.05 0.403 10.05 0.9 L 10.05 10.228 L 13.013 7.264 C 13.365 6.913 13.935 6.913 14.286 7.264 C 14.638 7.616 14.638 8.185 14.286 8.537 L 9.786 13.037 C 9.435 13.388 8.865 13.388 8.513 13.037 L 4.013 8.537 C 3.662 8.185 3.662 7.616 4.013 7.264 C 4.365 6.913 4.935 6.913 5.286 7.264 L 8.25 10.228 L 8.25 0.9 C 8.25 0.403 8.653 0 9.15 0 Z" fill="currentColor" fill-rule="nonzero"/>
  <path d="M 18.3 12.3 C 18.3 11.803 17.897 11.4 17.4 11.4 C 16.903 11.4 16.5 11.803 16.5 12.3 L 16.5 14.85 C 16.5 15.665 16.489 15.859 16.446 15.99 C 16.337 16.325 16.075 16.588 15.74 16.696 C 15.608 16.739 15.415 16.75 14.6 16.75 L 3.7 16.75 C 2.885 16.75 2.692 16.739 2.56 16.696 C 2.225 16.588 1.963 16.325 1.854 15.99 C 1.811 15.859 1.8 15.665 1.8 14.85 L 1.8 12.3 C 1.8 11.803 1.397 11.4 0.9 11.4 C 0.403 11.4 0 11.803 0 12.3 L 0 14.486 C 0 15.015 0 15.467 0.03 15.837 C 0.062 16.226 0.132 16.605 0.316 16.967 C 0.594 17.512 1.038 17.956 1.583 18.234 C 1.945 18.419 2.324 18.488 2.713 18.52 C 3.084 18.55 3.535 18.55 4.065 18.55 L 14.235 18.55 C 14.765 18.55 15.216 18.55 15.587 18.52 C 15.976 18.488 16.355 18.419 16.717 18.234 C 17.262 17.956 17.706 17.512 17.984 16.967 C 18.168 16.605 18.238 16.226 18.27 15.837 C 18.3 15.467 18.3 15.016 18.3 14.486 L 18.3 12.3 Z" fill="currentColor" fill-rule="nonzero"/>
</svg>
