<svg xmlns="http://www.w3.org/2000/svg" width="18.300" height="18.301" viewBox="0 0 18.300 18.301" fill="none">
  <path d="M 11.9 0 C 11.403 0 11 0.403 11 0.9 C 11 1.397 11.403 1.8 11.9 1.8 L 15.227 1.8 L 8.514 8.514 C 8.162 8.865 8.162 9.435 8.514 9.786 C 8.865 10.138 9.435 10.138 9.787 9.786 L 16.5 3.073 L 16.5 6.4 C 16.5 6.897 16.903 7.3 17.4 7.3 C 17.897 7.3 18.3 6.897 18.3 6.4 L 18.3 0.9 C 18.3 0.403 17.897 0 17.4 0 L 11.9 0 Z" fill="currentColor" fill-rule="nonzero"/>
  <path d="M 7.25 0.001 C 7.747 0.001 8.15 0.404 8.15 0.901 C 8.15 1.398 7.747 1.801 7.25 1.801 L 5.7 1.801 C 4.845 1.801 4.258 1.801 3.803 1.838 C 3.358 1.875 3.119 1.941 2.947 2.029 C 2.551 2.231 2.23 2.552 2.029 2.947 C 1.941 3.12 1.874 3.359 1.838 3.803 C 1.801 4.259 1.8 4.846 1.8 5.701 L 1.8 12.601 C 1.8 13.456 1.801 14.043 1.838 14.498 C 1.874 14.942 1.941 15.181 2.029 15.354 C 2.23 15.749 2.551 16.07 2.947 16.272 C 3.119 16.36 3.358 16.426 3.803 16.463 C 4.258 16.5 4.845 16.501 5.7 16.501 L 12.6 16.501 C 13.455 16.501 14.042 16.5 14.497 16.463 C 14.942 16.426 15.18 16.36 15.353 16.272 C 15.748 16.07 16.07 15.749 16.271 15.354 C 16.359 15.181 16.426 14.942 16.462 14.498 C 16.499 14.043 16.5 13.456 16.5 12.601 L 16.5 11.051 C 16.5 10.554 16.903 10.151 17.4 10.151 C 17.897 10.151 18.3 10.554 18.3 11.051 L 18.3 12.638 C 18.3 13.446 18.3 14.107 18.256 14.644 C 18.211 15.2 18.114 15.702 17.875 16.171 C 17.501 16.905 16.904 17.502 16.171 17.876 C 15.702 18.114 15.2 18.211 14.644 18.257 C 14.107 18.301 13.446 18.301 12.638 18.301 L 5.662 18.301 C 4.854 18.301 4.193 18.301 3.656 18.257 C 3.1 18.211 2.598 18.114 2.129 17.876 C 1.396 17.502 0.799 16.905 0.425 16.171 C 0.186 15.702 0.089 15.2 0.044 14.644 C 0 14.107 0 13.446 0 12.638 L 0 5.663 C 0 4.855 0 4.194 0.044 3.657 C 0.089 3.101 0.186 2.599 0.425 2.13 C 0.799 1.396 1.396 0.8 2.129 0.426 C 2.598 0.187 3.1 0.09 3.656 0.044 C 4.193 0.001 4.854 0.001 5.662 0.001 L 7.25 0.001 Z" fill="currentColor" fill-rule="nonzero"/>
</svg>
