<svg xmlns="http://www.w3.org/2000/svg" width="20.427" height="16.800" viewBox="0 0 20.427 16.800" fill="none">
  <path d="M 14.027 8.946 C 14.08 8.689 14.108 8.423 14.108 8.151 C 14.108 5.997 12.362 4.251 10.208 4.251 C 9.935 4.251 9.669 4.278 9.412 4.332 L 14.027 8.946 Z" fill="currentColor" fill-rule="nonzero"/>
  <path d="M 1.571 0.264 C 1.923 -0.088 2.493 -0.088 2.844 0.264 L 4.78 2.199 C 6.379 1.278 8.235 0.75 10.213 0.75 C 14.77 0.75 18.673 3.546 20.302 7.515 C 20.469 7.922 20.469 8.378 20.302 8.785 C 19.476 10.796 18.067 12.506 16.284 13.704 L 17.844 15.264 C 18.196 15.615 18.196 16.185 17.844 16.536 C 17.493 16.888 16.923 16.888 16.571 16.536 L 14.646 14.611 C 13.292 15.214 11.792 15.55 10.213 15.55 C 5.657 15.55 1.754 12.754 0.125 8.785 C -0.042 8.378 -0.042 7.922 0.125 7.515 C 0.812 5.842 1.903 4.377 3.277 3.242 L 1.571 1.536 C 1.22 1.185 1.22 0.615 1.571 0.264 Z M 4.557 4.522 C 3.36 5.473 2.408 6.719 1.811 8.15 C 3.182 11.438 6.428 13.75 10.213 13.75 C 11.283 13.75 12.309 13.565 13.262 13.227 L 11.763 11.728 C 11.286 11.935 10.761 12.051 10.208 12.051 C 8.054 12.051 6.308 10.304 6.308 8.151 C 6.308 7.598 6.423 7.072 6.63 6.595 L 4.557 4.522 Z M 14.982 12.402 C 16.597 11.406 17.878 9.919 18.616 8.15 C 17.244 4.862 13.999 2.55 10.213 2.55 C 8.736 2.55 7.341 2.902 6.108 3.527 L 14.982 12.402 Z M 8.109 8.074 L 10.284 10.249 C 10.259 10.25 10.233 10.251 10.208 10.251 C 9.048 10.251 8.108 9.31 8.108 8.151 C 8.108 8.125 8.108 8.099 8.109 8.074 Z" fill="currentColor" fill-rule="evenodd"/>
</svg>
