<svg xmlns="http://www.w3.org/2000/svg" width="19.800" height="19.800" viewBox="0 0 19.800 19.800" fill="none">
  <path d="M 9.857 1.8 C 9.886 1.8 9.914 1.8 9.943 1.8 C 10.831 3.063 11.517 4.479 11.954 6 L 7.846 6 C 8.283 4.479 8.969 3.063 9.857 1.8 Z M 12.292 2.159 C 12.958 3.353 13.476 4.642 13.818 6 L 17.001 6 C 15.998 4.178 14.314 2.783 12.292 2.159 Z M 17.725 7.8 L 14.163 7.8 C 14.253 8.487 14.3 9.188 14.3 9.9 C 14.3 10.612 14.253 11.313 14.163 12 L 17.725 12 C 17.904 11.33 18 10.626 18 9.9 C 18 9.174 17.904 8.47 17.725 7.8 Z M 17.001 13.8 L 13.818 13.8 C 13.476 15.158 12.958 16.447 12.292 17.641 C 14.314 17.017 15.998 15.622 17.001 13.8 Z M 9.943 18 C 9.914 18 9.886 18 9.857 18 C 8.969 16.737 8.283 15.321 7.846 13.8 L 11.954 13.8 C 11.517 15.321 10.831 16.737 9.943 18 Z M 7.508 17.641 C 5.486 17.017 3.802 15.622 2.799 13.8 L 5.982 13.8 C 6.324 15.158 6.842 16.447 7.508 17.641 Z M 2.075 12 L 5.637 12 C 5.547 11.313 5.5 10.612 5.5 9.9 C 5.5 9.188 5.547 8.487 5.637 7.8 L 2.075 7.8 C 1.896 8.47 1.8 9.174 1.8 9.9 C 1.8 10.626 1.896 11.33 2.075 12 Z M 2.799 6 L 5.982 6 C 6.324 4.642 6.842 3.353 7.508 2.159 C 5.486 2.783 3.802 4.178 2.799 6 Z M 9.9 0 C 4.432 0 0 4.432 0 9.9 C 0 15.368 4.432 19.8 9.9 19.8 C 15.368 19.8 19.8 15.368 19.8 9.9 C 19.8 4.432 15.368 0 9.9 0 Z M 7.455 12 L 12.345 12 C 12.447 11.315 12.5 10.614 12.5 9.9 C 12.5 9.186 12.447 8.485 12.345 7.8 L 7.455 7.8 C 7.353 8.485 7.3 9.186 7.3 9.9 C 7.3 10.614 7.353 11.315 7.455 12 Z" fill="currentColor" fill-rule="evenodd"/>
</svg>
