<svg xmlns="http://www.w3.org/2000/svg" width="18.466" height="18.467" viewBox="0 0 18.466 18.467" fill="none">
  <path d="M 13.304 0 C 14.643 0.007 15.988 0.573 16.941 1.526 C 17.899 2.485 18.459 3.81 18.466 5.163 L 18.466 5.167 C 18.466 6.316 18.07 7.314 17.327 8.291 L 17.319 8.301 C 16.977 8.737 16.506 9.244 15.739 10.011 L 14.996 10.754 C 14.645 11.105 14.075 11.105 13.723 10.754 C 13.372 10.402 13.372 9.832 13.723 9.481 L 14.466 8.738 C 15.221 7.983 15.627 7.54 15.898 7.196 C 16.45 6.469 16.666 5.846 16.666 5.17 C 16.661 4.299 16.295 3.426 15.668 2.799 C 15.047 2.178 14.156 1.805 13.297 1.8 C 12.62 1.8 12.021 2.005 11.276 2.575 C 10.896 2.869 10.449 3.28 9.728 4.001 L 8.986 4.743 C 8.634 5.095 8.064 5.094 7.713 4.743 C 7.361 4.391 7.361 3.822 7.713 3.47 L 8.455 2.728 C 9.188 1.996 9.702 1.517 10.175 1.15 L 10.179 1.147 C 11.175 0.385 12.15 0 13.299 0 L 13.304 0 Z" fill="currentColor" fill-rule="nonzero"/>
  <path d="M 12.733 5.733 C 13.085 6.085 13.085 6.654 12.733 7.006 L 7.006 12.734 C 6.654 13.085 6.085 13.085 5.733 12.734 C 5.382 12.382 5.382 11.812 5.733 11.461 L 11.461 5.733 C 11.812 5.382 12.382 5.382 12.733 5.733 Z" fill="currentColor" fill-rule="nonzero"/>
  <path d="M 4.743 7.713 C 5.094 8.064 5.095 8.634 4.743 8.986 L 4.001 9.728 C 3.28 10.449 2.869 10.897 2.575 11.276 C 2.005 12.021 1.801 12.62 1.8 13.297 C 1.805 14.156 2.177 15.047 2.799 15.668 C 3.426 16.295 4.299 16.661 5.17 16.667 C 5.846 16.666 6.469 16.45 7.196 15.899 C 7.54 15.628 7.983 15.221 8.738 14.466 L 9.481 13.723 C 9.832 13.372 10.402 13.372 10.754 13.723 C 11.105 14.075 11.105 14.645 10.754 14.996 L 10.011 15.739 C 9.244 16.506 8.737 16.977 8.301 17.319 L 8.291 17.327 C 7.314 18.071 6.316 18.467 5.167 18.467 L 5.163 18.467 C 3.81 18.459 2.485 17.9 1.526 16.941 C 0.573 15.988 0.007 14.644 0 13.304 L 0 13.299 C 0 12.15 0.385 11.176 1.147 10.18 L 1.15 10.176 C 1.517 9.702 1.995 9.188 2.728 8.456 L 3.47 7.713 C 3.822 7.362 4.391 7.361 4.743 7.713 Z" fill="currentColor" fill-rule="nonzero"/>
</svg>
