<svg xmlns="http://www.w3.org/2000/svg" width="16.800" height="20.048" viewBox="0 0 16.800 20.048" fill="none">
  <path d="M 10.134 18.974 C 10.86 18.393 11.83 17.555 12.803 16.53 C 14.709 14.521 16.8 11.613 16.8 8.4 C 16.8 3.761 13.039 0 8.4 0 C 3.761 0 0 3.761 0 8.4 C 0 11.613 2.091 14.521 3.997 16.53 C 4.97 17.555 5.94 18.393 6.666 18.974 C 7.065 19.293 7.471 19.608 7.894 19.895 C 8.194 20.098 8.604 20.099 8.904 19.896 C 9.328 19.608 9.735 19.294 10.134 18.974 Z M 11.15 8.4 C 11.15 9.919 9.919 11.15 8.4 11.15 C 6.881 11.15 5.65 9.919 5.65 8.4 C 5.65 6.881 6.881 5.65 8.4 5.65 C 9.919 5.65 11.15 6.881 11.15 8.4 Z" fill="currentColor" fill-rule="evenodd"/>
</svg>
