<svg xmlns="http://www.w3.org/2000/svg" width="19.550" height="18.800" viewBox="0 0 19.550 18.800" fill="none">
  <path d="M 13.888 0 C 14.696 0 15.356 0 15.893 0.044 C 16.449 0.089 16.951 0.186 17.42 0.425 C 18.154 0.799 18.751 1.396 19.125 2.129 C 19.364 2.598 19.461 3.1 19.506 3.656 C 19.55 4.193 19.55 4.854 19.55 5.662 L 19.55 13.138 C 19.55 13.946 19.55 14.607 19.506 15.144 C 19.461 15.7 19.364 16.202 19.125 16.671 C 18.751 17.404 18.154 18.001 17.42 18.375 C 16.951 18.614 16.449 18.711 15.893 18.756 C 15.356 18.8 14.696 18.8 13.888 18.8 L 12.9 18.8 C 12.403 18.8 12 18.397 12 17.9 C 12 17.403 12.403 17 12.9 17 L 13.85 17 C 14.705 17 15.292 16.999 15.747 16.962 C 16.192 16.926 16.43 16.859 16.603 16.771 C 16.998 16.57 17.32 16.249 17.521 15.853 C 17.609 15.681 17.676 15.442 17.712 14.997 C 17.749 14.542 17.75 13.955 17.75 13.1 L 17.75 5.7 C 17.75 4.845 17.749 4.258 17.712 3.803 C 17.676 3.358 17.609 3.119 17.521 2.947 C 17.32 2.551 16.998 2.23 16.603 2.029 C 16.43 1.941 16.192 1.874 15.747 1.838 C 15.292 1.801 14.705 1.8 13.85 1.8 L 12.9 1.8 C 12.403 1.8 12 1.397 12 0.9 C 12 0.403 12.403 0 12.9 0 L 13.888 0 Z" fill="currentColor" fill-rule="nonzero"/>
  <path d="M 8.536 14.536 L 13.036 10.036 C 13.388 9.685 13.388 9.115 13.036 8.763 L 8.536 4.263 C 8.185 3.912 7.615 3.912 7.264 4.263 C 6.912 4.615 6.912 5.185 7.264 5.536 L 10.227 8.5 L 0.9 8.5 C 0.403 8.5 0 8.903 0 9.4 C 0 9.897 0.403 10.3 0.9 10.3 L 10.227 10.3 L 7.264 13.263 C 6.912 13.615 6.912 14.185 7.264 14.536 C 7.615 14.888 8.185 14.888 8.536 14.536 Z" fill="currentColor" fill-rule="nonzero"/>
</svg>
