<svg xmlns="http://www.w3.org/2000/svg" width="19.800" height="17.758" viewBox="0 0 19.800 17.758" fill="none">
  <path d="M 3.406 0 L 16.394 0 C 18.275 0 19.8 1.525 19.8 3.406 L 19.8 11.464 C 19.8 13.345 18.275 14.87 16.394 14.87 L 11.771 14.87 L 10.207 17.573 C 10.068 17.82 9.702 17.82 9.563 17.573 L 7.999 14.87 L 3.406 14.87 C 1.525 14.87 0 13.345 0 11.464 L 0 3.406 C 0 1.525 1.525 0 3.406 0 Z M 4.603 9.682 C 4.227 9.682 3.881 9.524 3.604 9.256 L 3.604 9.583 L 2.485 9.583 L 2.485 4.653 L 3.604 4.653 L 3.604 6.217 C 3.881 5.95 4.217 5.791 4.603 5.791 C 5.633 5.791 6.475 6.663 6.475 7.742 C 6.475 8.821 5.633 9.682 4.603 9.682 Z M 8.286 9.583 L 7.158 9.583 L 7.158 6.346 C 7.158 5.801 6.861 5.544 6.554 5.534 L 6.554 4.534 C 7.306 4.584 8.286 5.079 8.286 6.336 L 8.286 9.583 Z M 10.87 9.682 C 9.791 9.682 8.92 8.811 8.92 7.732 C 8.92 6.653 9.791 5.782 10.87 5.782 C 11.949 5.782 12.82 6.653 12.82 7.732 C 12.82 8.811 11.949 9.682 10.87 9.682 Z M 17.305 9.306 C 17.305 10.811 16.157 11.137 15.365 11.167 L 15.365 10.177 C 16.077 10.138 16.236 9.791 16.226 9.167 L 16.226 9.098 C 15.949 9.375 15.592 9.544 15.196 9.544 C 14.167 9.544 13.325 8.702 13.325 7.672 C 13.325 6.643 14.167 5.801 15.196 5.801 C 15.592 5.801 15.949 5.97 16.226 6.247 L 16.226 5.91 L 17.305 5.91 L 17.305 9.306 Z M 16.285 7.663 C 16.285 8.167 15.86 8.583 15.335 8.583 C 14.81 8.583 14.385 8.167 14.385 7.663 C 14.385 7.158 14.81 6.742 15.335 6.742 C 15.86 6.742 16.285 7.158 16.285 7.663 Z M 5.435 7.742 C 5.435 8.266 5.009 8.702 4.475 8.702 C 3.94 8.702 3.514 8.276 3.514 7.742 C 3.514 7.207 3.94 6.781 4.475 6.781 C 5.009 6.781 5.435 7.207 5.435 7.742 Z M 11.791 7.742 C 11.791 8.247 11.375 8.662 10.87 8.662 C 10.365 8.662 9.949 8.247 9.949 7.742 C 9.949 7.237 10.365 6.821 10.87 6.821 C 11.375 6.821 11.791 7.237 11.791 7.742 Z" fill="currentColor" fill-rule="evenodd"/>
</svg>
