<svg xmlns="http://www.w3.org/2000/svg" width="15.680" height="20.987" viewBox="0 0 15.680 20.987" fill="none">
  <path d="M 3.976 15.588 C 3.861 15.595 3.795 15.596 3.792 15.596 C 3.792 15.596 3.448 15.716 3.331 16.39 C 3.267 16.76 3.082 16.92 2.195 17.303 C 2.085 17.35 1.97 17.399 1.848 17.454 C 1.751 17.497 1.67 17.431 1.757 17.279 C 1.766 17.264 1.819 17.173 1.907 17.022 C 2.098 16.693 2.457 16.077 2.893 15.323 C 2.581 15.175 2.335 14.992 2.202 14.853 L 2.363 14.571 C 2.621 14.753 2.871 14.876 3.105 14.957 C 4.421 12.687 6.271 9.488 6.59 8.894 C 7.875 6.487 10.245 2.474 11.809 1.097 C 13.067 -0.011 13.63 -0.187 13.903 0.16 C 14.235 0.576 13.475 2.106 12.875 2.887 C 11.873 4.19 10.542 4.802 10.542 4.802 C 10.542 4.802 11.213 5.298 9.896 6.595 C 7.858 8.601 6.82 10.334 6.305 11.194 C 6.25 11.285 6.201 11.367 6.158 11.438 C 5.924 11.818 6.008 11.86 6.055 11.801 C 7.871 9.912 9.498 8.828 10.843 8.828 C 11.728 8.828 12.246 9.316 12.246 10.169 C 12.246 12.42 9.362 14.095 8.348 14.54 C 6.422 15.382 4.558 15.554 3.976 15.588 Z M 9.497 9.761 L 9.443 9.788 C 6.406 11.283 4.063 15.06 4.033 15.109 C 4.054 15.109 4.073 15.107 4.093 15.106 L 4.097 15.106 C 4.454 15.077 6.234 14.893 7.831 14.06 C 9.214 13.337 10.788 11.838 10.976 10.253 C 11.006 9.997 10.962 9.801 10.848 9.673 C 10.746 9.558 10.594 9.501 10.396 9.501 C 10.149 9.501 9.829 9.592 9.497 9.761 Z M 10.033 4.608 C 11.111 3.839 12.52 2.64 13.092 0.769 C 13.092 0.769 10.298 3.49 8.411 7.137 C 8.752 6.765 9.052 6.468 9.299 6.224 C 9.768 5.761 10.044 5.488 10.037 5.253 C 10.035 5.148 9.996 5.061 9.961 4.983 C 9.9 4.847 9.852 4.738 10.033 4.608 Z" fill="currentColor" fill-rule="evenodd"/>
  <path d="M 15.68 19.227 L 0 19.227 L 0 20.987 L 15.68 20.987 L 15.68 19.227 Z" fill="currentColor" fill-rule="nonzero"/>
</svg>
