<svg xmlns="http://www.w3.org/2000/svg" width="19.800" height="19.691" viewBox="0 0 19.800 19.691" fill="none">
  <path d="M 9.9 0 C 4.435 0 0 4.435 0 9.9 C 0 14.84 3.623 18.939 8.356 19.681 L 8.356 12.761 L 5.841 12.761 L 5.841 9.9 L 8.356 9.9 L 8.356 7.722 C 8.356 5.237 9.831 3.871 12.098 3.871 C 13.177 3.871 14.315 4.069 14.315 4.069 L 14.315 6.504 L 13.068 6.504 C 11.84 6.504 11.454 7.267 11.454 8.049 L 11.454 9.91 L 14.197 9.91 L 13.761 12.771 L 11.454 12.771 L 11.454 19.691 C 16.186 18.949 19.8 14.84 19.8 9.9 C 19.8 4.435 15.375 0.01 9.91 0.01 L 9.9 0 Z" fill="currentColor" fill-rule="nonzero"/>
</svg>
