<svg xmlns="http://www.w3.org/2000/svg" width="19.300" height="19.300" viewBox="0 0 19.300 19.300" fill="none">
  <path d="M 12.039 0 L 7.261 0 C 6.174 0 5.303 0 4.6 0.057 C 3.877 0.117 3.251 0.241 2.675 0.534 C 1.753 1.004 1.004 1.753 0.534 2.675 C 0.241 3.251 0.117 3.877 0.057 4.6 C 0 5.303 0 6.174 0 7.261 L 0 12.039 C 0 13.126 0 13.997 0.057 14.7 C 0.117 15.423 0.241 16.049 0.534 16.625 C 1.004 17.547 1.753 18.296 2.675 18.766 C 3.251 19.059 3.877 19.183 4.6 19.243 C 5.303 19.3 6.174 19.3 7.261 19.3 L 12.039 19.3 C 13.126 19.3 13.997 19.3 14.7 19.243 C 15.423 19.183 16.049 19.059 16.624 18.766 C 17.546 18.296 18.296 17.547 18.766 16.625 C 19.059 16.049 19.183 15.423 19.242 14.7 C 19.3 13.997 19.3 13.126 19.3 12.039 L 19.3 7.261 C 19.3 6.174 19.3 5.303 19.242 4.6 C 19.183 3.877 19.059 3.251 18.766 2.675 C 18.296 1.753 17.546 1.004 16.624 0.534 C 16.049 0.241 15.423 0.117 14.7 0.057 C 13.997 0 13.126 0 12.039 0 Z M 4.2 5.499 C 4.2 6.217 4.78 6.799 5.499 6.799 C 6.215 6.799 6.796 6.214 6.796 5.499 C 6.796 4.782 6.215 4.2 5.499 4.2 C 4.78 4.2 4.2 4.782 4.2 5.499 Z M 4.38 15 L 6.619 15 L 6.619 7.782 L 4.38 7.782 L 4.38 15 Z M 15 15 L 12.763 15 L 12.763 11.492 C 12.763 10.656 12.748 9.578 11.599 9.578 C 10.435 9.578 10.258 10.49 10.258 11.432 L 10.258 15 L 8.025 15 L 8.025 7.782 L 10.17 7.782 L 10.17 8.769 L 10.199 8.769 C 10.497 8.202 11.228 7.602 12.315 7.602 C 14.581 7.602 15 9.096 15 11.04 L 15 15 Z" fill="currentColor" fill-rule="evenodd"/>
</svg>
