<svg xmlns="http://www.w3.org/2000/svg" width="19.300" height="19.300" viewBox="0 0 19.300 19.300" fill="none">
  <path d="M 15.951 4.498 C 15.951 5.142 15.436 5.657 14.792 5.657 C 14.148 5.657 13.632 5.142 13.632 4.498 C 13.632 3.854 14.148 3.338 14.792 3.338 C 15.436 3.338 15.951 3.854 15.951 4.498 Z M 19.3 9.65 C 19.3 12.269 19.289 12.602 19.246 13.632 C 19.203 14.663 19.032 15.361 18.795 15.972 C 18.549 16.606 18.216 17.142 17.679 17.679 C 17.142 18.216 16.606 18.549 15.972 18.796 C 15.361 19.032 14.652 19.193 13.632 19.246 C 12.602 19.289 12.269 19.3 9.65 19.3 C 7.031 19.3 6.698 19.289 5.668 19.246 C 4.637 19.203 3.939 19.032 3.328 18.796 C 2.694 18.549 2.158 18.216 1.621 17.679 C 1.084 17.142 0.751 16.606 0.505 15.972 C 0.268 15.361 0.107 14.652 0.054 13.632 C 0.011 12.602 0 12.269 0 9.65 C 0 7.031 0.011 6.698 0.054 5.668 C 0.097 4.637 0.268 3.939 0.505 3.328 C 0.751 2.694 1.084 2.158 1.621 1.621 C 2.158 1.084 2.694 0.751 3.328 0.505 C 3.939 0.268 4.648 0.107 5.668 0.054 C 6.698 0.011 7.031 0 9.65 0 C 12.269 0 12.602 0.011 13.632 0.054 C 14.663 0.097 15.361 0.268 15.972 0.505 C 16.606 0.751 17.142 1.084 17.679 1.621 C 18.216 2.158 18.549 2.694 18.795 3.328 C 19.032 3.939 19.193 4.648 19.246 5.668 C 19.289 6.698 19.3 7.031 19.3 9.65 Z M 17.561 9.65 C 17.561 7.074 17.561 6.763 17.507 5.743 C 17.464 4.798 17.303 4.294 17.175 3.95 C 17.003 3.499 16.788 3.177 16.455 2.845 C 16.123 2.512 15.801 2.297 15.35 2.125 C 15.006 1.997 14.502 1.836 13.557 1.793 C 12.537 1.75 12.237 1.739 9.65 1.739 C 7.063 1.739 6.762 1.739 5.743 1.793 C 4.798 1.836 4.294 1.997 3.95 2.125 C 3.499 2.297 3.177 2.512 2.845 2.845 C 2.512 3.177 2.297 3.499 2.125 3.95 C 1.997 4.294 1.836 4.798 1.793 5.743 C 1.75 6.763 1.739 7.063 1.739 9.65 C 1.739 12.237 1.739 12.537 1.793 13.557 C 1.836 14.502 1.997 15.006 2.125 15.35 C 2.297 15.801 2.512 16.123 2.845 16.455 C 3.177 16.788 3.499 17.003 3.95 17.175 C 4.294 17.303 4.798 17.464 5.743 17.507 C 6.762 17.55 7.063 17.561 9.65 17.561 C 12.237 17.561 12.537 17.561 13.557 17.507 C 14.502 17.464 15.006 17.303 15.35 17.175 C 15.801 17.003 16.123 16.788 16.455 16.455 C 16.788 16.123 17.003 15.801 17.175 15.35 C 17.303 15.006 17.464 14.502 17.507 13.557 C 17.55 12.537 17.561 12.237 17.561 9.65 Z M 14.598 9.65 C 14.598 12.387 12.376 14.609 9.639 14.609 C 6.902 14.609 4.68 12.387 4.68 9.65 C 4.68 6.913 6.902 4.691 9.639 4.691 C 12.376 4.691 14.598 6.913 14.598 9.65 Z M 12.859 9.65 C 12.859 7.868 11.421 6.43 9.639 6.43 C 7.857 6.43 6.419 7.868 6.419 9.65 C 6.419 11.432 7.857 12.87 9.639 12.87 C 11.421 12.87 12.859 11.432 12.859 9.65 Z" fill="currentColor" fill-rule="nonzero"/>
</svg>
