<svg xmlns="http://www.w3.org/2000/svg" width="19.050" height="18.800" viewBox="0 0 19.050 18.800" fill="none">
  <path d="M 5.662 0 C 4.854 0 4.193 0 3.656 0.044 C 3.1 0.089 2.598 0.186 2.129 0.425 C 1.396 0.799 0.799 1.396 0.425 2.129 C 0.186 2.598 0.089 3.1 0.044 3.656 C 0 4.193 0 4.854 0 5.662 L 0 13.138 C 0 13.946 0 14.607 0.044 15.144 C 0.089 15.7 0.186 16.202 0.425 16.671 C 0.799 17.404 1.396 18.001 2.129 18.375 C 2.598 18.614 3.1 18.711 3.656 18.756 C 4.193 18.8 4.854 18.8 5.662 18.8 L 6.65 18.8 C 7.147 18.8 7.55 18.397 7.55 17.9 C 7.55 17.403 7.147 17 6.65 17 L 5.7 17 C 4.845 17 4.258 16.999 3.803 16.962 C 3.358 16.926 3.119 16.859 2.947 16.771 C 2.551 16.57 2.23 16.249 2.029 15.853 C 1.941 15.681 1.874 15.442 1.838 14.997 C 1.801 14.542 1.8 13.955 1.8 13.1 L 1.8 5.7 C 1.8 4.845 1.801 4.258 1.838 3.803 C 1.874 3.358 1.941 3.119 2.029 2.947 C 2.23 2.551 2.551 2.23 2.947 2.029 C 3.119 1.941 3.358 1.874 3.803 1.838 C 4.258 1.801 4.845 1.8 5.7 1.8 L 6.65 1.8 C 7.147 1.8 7.55 1.397 7.55 0.9 C 7.55 0.403 7.147 0 6.65 0 L 5.662 0 Z" fill="currentColor" fill-rule="nonzero"/>
  <path d="M 14.286 14.536 L 18.786 10.036 C 19.138 9.684 19.138 9.114 18.786 8.763 L 14.286 4.263 C 13.935 3.911 13.365 3.911 13.014 4.263 C 12.662 4.614 12.662 5.184 13.014 5.536 L 15.977 8.499 L 6.65 8.499 C 6.153 8.499 5.75 8.902 5.75 9.399 C 5.75 9.896 6.153 10.299 6.65 10.299 L 15.977 10.299 L 13.014 13.263 C 12.662 13.614 12.662 14.184 13.014 14.536 C 13.365 14.887 13.935 14.887 14.286 14.536 Z" fill="currentColor" fill-rule="nonzero"/>
</svg>
