<svg xmlns="http://www.w3.org/2000/svg" width="19.800" height="15.300" viewBox="0 0 19.800 15.300" fill="none">
  <path d="M 4.065 0 C 3.535 0 3.084 0 2.713 0.03 C 2.324 0.062 1.945 0.132 1.583 0.316 C 1.038 0.594 0.594 1.038 0.316 1.583 C 0.132 1.945 0.062 2.324 0.03 2.713 C 0 3.084 0 3.535 0 4.065 L 0 11.235 C 0 11.765 0 12.216 0.03 12.587 C 0.062 12.976 0.132 13.355 0.316 13.717 C 0.594 14.262 1.038 14.706 1.583 14.984 C 1.945 15.168 2.324 15.238 2.713 15.27 C 3.084 15.3 3.535 15.3 4.065 15.3 L 15.735 15.3 C 16.265 15.3 16.716 15.3 17.087 15.27 C 17.476 15.238 17.855 15.168 18.217 14.984 C 18.762 14.706 19.206 14.262 19.484 13.717 C 19.668 13.355 19.738 12.976 19.77 12.587 C 19.8 12.216 19.8 11.765 19.8 11.235 L 19.8 4.065 C 19.8 3.535 19.8 3.084 19.77 2.713 C 19.738 2.324 19.668 1.945 19.484 1.583 C 19.206 1.038 18.762 0.594 18.217 0.316 C 17.855 0.132 17.476 0.062 17.087 0.03 C 16.716 0 16.265 0 15.735 0 L 4.065 0 Z M 2.56 1.855 C 2.692 1.812 2.885 1.801 3.7 1.801 L 16.1 1.801 C 16.915 1.801 17.108 1.812 17.24 1.855 C 17.575 1.964 17.837 2.227 17.946 2.561 C 17.977 2.658 17.992 2.788 17.997 3.171 L 11.18 7.719 C 10.48 8.186 10.314 8.28 10.161 8.317 C 9.993 8.357 9.817 8.357 9.648 8.317 C 9.495 8.28 9.329 8.186 8.629 7.719 L 1.803 3.171 C 1.808 2.788 1.823 2.658 1.854 2.561 C 1.963 2.227 2.225 1.964 2.56 1.855 Z M 1.8 5.332 L 1.8 11.601 C 1.8 12.416 1.811 12.61 1.854 12.741 C 1.963 13.076 2.225 13.339 2.56 13.447 C 2.692 13.49 2.885 13.501 3.7 13.501 L 16.1 13.501 C 16.915 13.501 17.108 13.49 17.24 13.447 C 17.575 13.339 17.837 13.076 17.946 12.741 C 17.989 12.61 18 12.416 18 11.601 L 18 5.333 L 12.073 9.287 C 11.538 9.645 11.088 9.946 10.581 10.068 C 10.137 10.174 9.674 10.174 9.229 10.068 C 8.722 9.947 8.272 9.646 7.737 9.288 L 1.8 5.332 Z" fill="currentColor" fill-rule="evenodd"/>
</svg>
