<svg xmlns="http://www.w3.org/2000/svg" width="3.5" height="17" viewBox="0 0 3.5 17" fill="currentColor"><path d="M 3.5 1.75 C 3.5 2.717 2.716 3.5 1.75 3.5 C 0.783 3.5 0 2.717 0 1.75 C 0 0.784 0.783 0 1.75 0 C 2.716 0 3.5 0.784 3.5 1.75 Z M 3.5 8.5 C 3.5 9.467 2.716 10.25 1.75 10.25 C 0.783 10.25 0 9.467 0 8.5 C 0 7.534 0.783 6.75 1.75 6.75 C 2.716 6.75 3.5 7.534 3.5 8.5 Z M 3.5 15.25 C 3.5 16.217 2.716 17 1.75 17 C 0.783 17 0 16.217 0 15.25 C 0 14.284 0.783 13.5 1.75 13.5 C 2.716 13.5 3.5 14.284 3.5 15.25 Z" fill-rule="evenodd"></path></svg>