<svg xmlns="http://www.w3.org/2000/svg" width="12.500" height="16" viewBox="0 0 12.500 16" fill="none">
  <path d="M 0 2 L 0 14 C 0 14.465 0 14.697 0.051 14.888 C 0.19 15.406 0.594 15.81 1.112 15.949 C 1.303 16 1.535 16 2 16 C 2.465 16 2.697 16 2.888 15.949 C 3.406 15.81 3.81 15.406 3.949 14.888 C 4 14.697 4 14.465 4 14 L 4 2 C 4 1.535 4 1.303 3.949 1.112 C 3.81 0.594 3.406 0.19 2.888 0.051 C 2.697 0 2.465 0 2 0 C 1.535 0 1.303 0 1.112 0.051 C 0.594 0.19 0.19 0.594 0.051 1.112 C 0 1.303 0 1.535 0 2 Z" fill="currentColor" fill-rule="nonzero"/>
  <path d="M 12.449 1.112 C 12.5 1.303 12.5 1.535 12.5 2 L 12.5 14 C 12.5 14.465 12.5 14.697 12.449 14.888 C 12.31 15.406 11.906 15.81 11.388 15.949 C 11.197 16 10.965 16 10.5 16 C 10.035 16 9.802 16 9.612 15.949 C 9.094 15.81 8.69 15.406 8.551 14.888 C 8.5 14.697 8.5 14.465 8.5 14 L 8.5 2 C 8.5 1.535 8.5 1.303 8.551 1.112 C 8.69 0.594 9.094 0.19 9.612 0.051 C 9.802 0 10.035 0 10.5 0 C 10.965 0 11.197 0 11.388 0.051 C 11.906 0.19 12.31 0.594 12.449 1.112 Z" fill="currentColor" fill-rule="nonzero"/>
</svg>
