<svg xmlns="http://www.w3.org/2000/svg" width="17.946" height="17.946" viewBox="0 0 17.946 17.946" fill="none">
  <path d="M 12.889 0.868 C 14.045 -0.289 15.921 -0.289 17.078 0.868 C 18.235 2.025 18.235 3.9 17.078 5.057 L 4.453 17.682 C 4.284 17.851 4.055 17.946 3.817 17.946 L 0.9 17.946 C 0.403 17.946 0 17.543 0 17.046 L 0 14.129 C 0 13.89 0.095 13.661 0.264 13.493 L 12.889 0.868 Z M 15.805 2.14 C 15.351 1.687 14.615 1.687 14.161 2.14 L 1.8 14.502 L 1.8 16.146 L 3.444 16.146 L 15.805 3.784 C 16.259 3.33 16.259 2.594 15.805 2.14 Z" fill="currentColor" fill-rule="evenodd"/>
</svg>
