<svg xmlns="http://www.w3.org/2000/svg" width="21.800" height="21.800" viewBox="0 0 21.800 21.800" fill="none">
  <path d="M 10 20.9 C 10 21.397 10.403 21.8 10.9 21.8 C 11.397 21.8 11.8 21.397 11.8 20.9 L 11.8 18.9 C 11.8 18.403 11.397 18 10.9 18 C 10.403 18 10 18.403 10 18.9 L 10 20.9 Z" fill="currentColor" fill-rule="nonzero"/>
  <path d="M 10 2.9 C 10 3.397 10.403 3.8 10.9 3.8 C 11.397 3.8 11.8 3.397 11.8 2.9 L 11.8 0.9 C 11.8 0.403 11.397 0 10.9 0 C 10.403 0 10 0.403 10 0.9 L 10 2.9 Z" fill="currentColor" fill-rule="nonzero"/>
  <path d="M 5.5 10.897 C 5.5 7.915 7.918 5.497 10.9 5.497 C 13.882 5.497 16.3 7.915 16.3 10.897 C 16.3 13.88 13.882 16.297 10.9 16.297 C 7.918 16.297 5.5 13.88 5.5 10.897 Z M 10.9 7.297 C 8.912 7.297 7.3 8.909 7.3 10.897 C 7.3 12.885 8.912 14.497 10.9 14.497 C 12.888 14.497 14.5 12.885 14.5 10.897 C 14.5 8.909 12.888 7.297 10.9 7.297 Z" fill="currentColor" fill-rule="evenodd"/>
  <path d="M 0 10.9 C 0 10.403 0.403 10 0.9 10 L 2.9 10 C 3.397 10 3.8 10.403 3.8 10.9 C 3.8 11.397 3.397 11.8 2.9 11.8 L 0.9 11.8 C 0.403 11.8 0 11.397 0 10.9 Z" fill="currentColor" fill-rule="nonzero"/>
  <path d="M 18 10.9 C 18 10.403 18.403 10 18.9 10 L 20.9 10 C 21.397 10 21.8 10.403 21.8 10.9 C 21.8 11.397 21.397 11.8 20.9 11.8 L 18.9 11.8 C 18.403 11.8 18 11.397 18 10.9 Z" fill="currentColor" fill-rule="nonzero"/>
  <path d="M 3.193 18.607 C 2.841 18.256 2.841 17.686 3.193 17.335 L 4.607 15.92 C 4.958 15.569 5.528 15.569 5.88 15.92 C 6.231 16.272 6.231 16.842 5.88 17.193 L 4.465 18.607 C 4.114 18.959 3.544 18.959 3.193 18.607 Z" fill="currentColor" fill-rule="nonzero"/>
  <path d="M 15.92 5.879 C 15.569 5.528 15.569 4.958 15.92 4.607 L 17.335 3.192 C 17.686 2.841 18.256 2.841 18.607 3.192 C 18.959 3.544 18.959 4.114 18.607 4.465 L 17.193 5.879 C 16.842 6.231 16.272 6.231 15.92 5.879 Z" fill="currentColor" fill-rule="nonzero"/>
  <path d="M 17.335 18.607 C 17.686 18.959 18.256 18.959 18.607 18.607 C 18.959 18.256 18.959 17.686 18.607 17.335 L 17.193 15.92 C 16.842 15.569 16.272 15.569 15.92 15.92 C 15.569 16.272 15.569 16.842 15.92 17.193 L 17.335 18.607 Z" fill="currentColor" fill-rule="nonzero"/>
  <path d="M 4.607 5.879 C 4.958 6.231 5.528 6.231 5.879 5.879 C 6.231 5.528 6.231 4.958 5.879 4.607 L 4.465 3.192 C 4.114 2.841 3.544 2.841 3.192 3.192 C 2.841 3.544 2.841 4.114 3.192 4.465 L 4.607 5.879 Z" fill="currentColor" fill-rule="nonzero"/>
</svg>
