<svg xmlns="http://www.w3.org/2000/svg" width="15.800" height="21.800" viewBox="0 0 15.800 21.800" fill="none">
  <path d="M 9.237 0.066 C 9.615 0.218 9.844 0.607 9.793 1.012 L 8.919 8 L 12.741 8 C 13.221 8 13.642 8 13.974 8.03 C 14.303 8.06 14.721 8.13 15.071 8.404 C 15.52 8.756 15.788 9.29 15.799 9.861 C 15.809 10.305 15.613 10.682 15.44 10.962 C 15.265 11.247 15.012 11.583 14.724 11.968 L 7.62 21.44 C 7.375 21.767 6.941 21.887 6.563 21.735 C 6.184 21.582 5.956 21.193 6.007 20.788 L 6.88 13.8 L 3.059 13.8 C 2.579 13.8 2.158 13.8 1.826 13.77 C 1.497 13.74 1.078 13.67 0.729 13.396 C 0.28 13.044 0.012 12.51 0 11.94 C -0.009 11.495 0.186 11.118 0.36 10.838 C 0.535 10.553 0.787 10.217 1.076 9.833 L 8.18 0.36 C 8.425 0.034 8.859 -0.087 9.237 0.066 Z M 7.586 4.151 L 1.82 11.84 C 1.802 11.864 1.799 11.88 1.798 11.891 C 1.797 11.905 1.8 11.924 1.81 11.945 C 1.821 11.966 1.835 11.979 1.847 11.987 C 1.855 11.993 1.87 12 1.9 12 L 7.9 12 C 8.158 12 8.404 12.111 8.575 12.305 C 8.745 12.498 8.825 12.756 8.793 13.012 L 8.213 17.649 L 13.98 9.96 C 13.998 9.936 14.001 9.92 14.001 9.91 C 14.002 9.896 14 9.876 13.989 9.855 C 13.979 9.835 13.965 9.821 13.953 9.813 C 13.944 9.807 13.93 9.8 13.9 9.8 L 7.9 9.8 C 7.642 9.8 7.396 9.689 7.225 9.496 C 7.054 9.302 6.975 9.045 7.007 8.789 L 7.586 4.151 Z" fill="currentColor" fill-rule="evenodd"/>
</svg>
