<svg xmlns="http://www.w3.org/2000/svg" width="18.300" height="18.550" viewBox="0 0 18.300 18.550" fill="none">
  <path d="M 9.15 0 C 9.407 0 9.64 0.108 9.804 0.282 L 14.286 4.764 C 14.638 5.116 14.638 5.685 14.286 6.037 C 13.935 6.388 13.365 6.388 13.013 6.037 L 10.05 3.073 L 10.05 12.4 C 10.05 12.897 9.647 13.3 9.15 13.3 C 8.653 13.3 8.25 12.897 8.25 12.4 L 8.25 3.073 L 5.286 6.037 C 4.935 6.388 4.365 6.388 4.013 6.037 C 3.662 5.685 3.662 5.116 4.013 4.764 L 8.496 0.282 C 8.66 0.108 8.892 0 9.15 0 Z" fill="currentColor" fill-rule="nonzero"/>
  <path d="M 18.3 12.3 C 18.3 11.803 17.897 11.4 17.4 11.4 C 16.903 11.4 16.5 11.803 16.5 12.3 L 16.5 14.85 C 16.5 15.665 16.489 15.859 16.446 15.99 C 16.337 16.325 16.075 16.588 15.74 16.696 C 15.608 16.739 15.415 16.75 14.6 16.75 L 3.7 16.75 C 2.885 16.75 2.692 16.739 2.56 16.696 C 2.225 16.588 1.963 16.325 1.854 15.99 C 1.811 15.859 1.8 15.665 1.8 14.85 L 1.8 12.3 C 1.8 11.803 1.397 11.4 0.9 11.4 C 0.403 11.4 0 11.803 0 12.3 L 0 14.486 C 0 15.015 0 15.467 0.03 15.837 C 0.062 16.226 0.132 16.605 0.316 16.967 C 0.594 17.512 1.038 17.956 1.583 18.234 C 1.945 18.419 2.324 18.488 2.713 18.52 C 3.084 18.55 3.535 18.55 4.065 18.55 L 14.235 18.55 C 14.765 18.55 15.216 18.55 15.587 18.52 C 15.976 18.488 16.355 18.419 16.717 18.234 C 17.262 17.956 17.706 17.512 17.984 16.967 C 18.168 16.605 18.238 16.226 18.27 15.837 C 18.3 15.467 18.3 15.016 18.3 14.486 L 18.3 12.3 Z" fill="currentColor" fill-rule="nonzero"/>
</svg>
