<svg xmlns="http://www.w3.org/2000/svg" width="20.800" height="20.800" viewBox="0 0 20.800 20.800" fill="none">
  <path d="M 8.425 0.827 C 9.511 -0.276 11.289 -0.275 12.375 0.827 L 13.487 1.956 C 13.672 2.144 13.924 2.248 14.187 2.246 L 15.773 2.234 C 17.32 2.223 18.577 3.48 18.566 5.027 L 18.554 6.613 C 18.552 6.876 18.656 7.128 18.844 7.312 L 19.973 8.425 C 21.075 9.511 21.075 11.289 19.973 12.375 L 18.844 13.488 C 18.656 13.672 18.552 13.924 18.554 14.187 L 18.566 15.773 C 18.577 17.32 17.32 18.577 15.773 18.566 L 14.187 18.554 C 13.924 18.552 13.672 18.656 13.488 18.844 L 12.375 19.973 C 11.289 21.076 9.511 21.076 8.425 19.973 L 7.312 18.844 C 7.128 18.656 6.876 18.552 6.613 18.554 L 5.027 18.566 C 3.48 18.577 2.223 17.32 2.234 15.773 L 2.246 14.187 C 2.248 13.925 2.144 13.672 1.956 13.488 L 0.827 12.375 C -0.276 11.289 -0.276 9.511 0.827 8.425 L 1.956 7.312 C 2.144 7.128 2.248 6.876 2.246 6.613 L 2.234 5.027 C 2.223 3.48 3.48 2.223 5.027 2.234 L 6.613 2.246 C 6.875 2.248 7.128 2.144 7.312 1.956 L 8.425 0.827 Z M 14.786 8.536 C 15.138 8.184 15.138 7.615 14.786 7.263 C 14.435 6.912 13.865 6.912 13.514 7.263 L 9.15 11.627 L 7.286 9.763 C 6.935 9.412 6.365 9.412 6.014 9.763 C 5.662 10.114 5.662 10.684 6.014 11.036 L 8.513 13.536 C 8.682 13.705 8.911 13.799 9.15 13.799 C 9.388 13.799 9.617 13.705 9.786 13.536 L 14.786 8.536 Z" fill="currentColor" fill-rule="evenodd"/>
</svg>
