<svg xmlns="http://www.w3.org/2000/svg" width="22.564" height="19.564" viewBox="0 0 22.564 19.564" fill="none">
  <path d="M 10.879 0.095 C 11.133 -0.032 11.431 -0.032 11.684 0.095 L 21.283 4.894 C 21.487 4.996 21.692 5.099 21.852 5.198 C 22.008 5.295 22.275 5.477 22.429 5.8 C 22.53 6.013 22.574 6.244 22.562 6.474 L 22.562 12.4 C 22.562 12.897 22.159 13.3 21.662 13.3 C 21.165 13.3 20.762 12.897 20.762 12.4 L 20.762 8.166 L 18.682 9.206 L 18.682 13.791 C 18.683 14.391 18.683 14.896 18.523 15.359 C 18.383 15.766 18.155 16.136 17.854 16.443 C 17.511 16.793 17.059 17.019 16.522 17.286 L 13.03 19.032 C 12.59 19.253 12.219 19.439 11.817 19.514 C 11.463 19.58 11.101 19.58 10.747 19.514 C 10.345 19.439 9.974 19.253 9.534 19.032 L 6.042 17.286 C 5.505 17.019 5.053 16.793 4.71 16.443 C 4.409 16.136 4.181 15.766 4.04 15.359 C 3.881 14.896 3.881 14.391 3.882 13.791 L 3.882 9.206 L 1.281 7.906 C 1.077 7.804 0.872 7.701 0.712 7.602 C 0.556 7.505 0.288 7.323 0.135 7 C -0.045 6.62 -0.045 6.18 0.135 5.8 C 0.288 5.477 0.556 5.295 0.712 5.198 C 0.872 5.099 1.077 4.996 1.281 4.894 L 10.879 0.095 Z M 11.684 12.705 L 16.882 10.106 L 16.882 13.672 C 16.882 14.455 16.87 14.632 16.822 14.773 C 16.769 14.927 16.682 15.067 16.568 15.184 C 16.464 15.29 16.311 15.379 15.611 15.729 L 12.311 17.379 C 11.739 17.665 11.607 17.722 11.485 17.745 C 11.351 17.77 11.213 17.77 11.079 17.745 C 10.957 17.722 10.825 17.665 10.253 17.379 L 6.953 15.729 C 6.253 15.379 6.1 15.29 5.996 15.184 C 5.882 15.067 5.795 14.927 5.742 14.773 C 5.694 14.632 5.682 14.455 5.682 13.672 L 5.682 10.106 L 10.879 12.705 C 11.133 12.832 11.431 12.832 11.684 12.705 Z M 2.294 6.4 L 11.282 10.894 L 20.269 6.4 L 11.282 1.906 L 2.294 6.4 Z" fill="currentColor" fill-rule="evenodd"/>
</svg>
