<svg xmlns="http://www.w3.org/2000/svg" width="21.300" height="14.910" viewBox="0 0 21.300 14.910" fill="none">
  <path d="M 18.968 0.447 C 19.883 0.692 20.608 1.416 20.853 2.332 C 21.3 3.994 21.3 7.455 21.3 7.455 C 21.3 7.455 21.3 10.916 20.853 12.578 C 20.608 13.494 19.883 14.218 18.968 14.463 C 17.306 14.91 10.65 14.91 10.65 14.91 C 10.65 14.91 3.994 14.91 2.332 14.463 C 1.416 14.218 0.692 13.494 0.447 12.578 C 0 10.916 0 7.455 0 7.455 C 0 7.455 0 3.994 0.447 2.332 C 0.692 1.416 1.416 0.692 2.332 0.447 C 3.994 0 10.65 0 10.65 0 C 10.65 0 17.306 0 18.968 0.447 Z M 8.52 4.26 L 8.52 10.65 L 14.058 7.455 L 8.52 4.26 Z" fill="currentColor" fill-rule="evenodd"/>
</svg>
