<svg xmlns="http://www.w3.org/2000/svg" width="14.083" height="15.966" viewBox="0 0 14.083 15.966" fill="currentColor"><path d="M 4.834 14.613 C 3.25 15.553 2.459 16.023 1.808 15.96 C 1.24 15.905 0.723 15.611 0.386 15.151 C 0 14.623 0 13.703 0 11.861 L 0 4.104 C 0 2.263 0 1.342 0.386 0.815 C 0.723 0.355 1.24 0.06 1.808 0.006 C 2.459 -0.057 3.25 0.413 4.834 1.353 L 11.366 5.231 C 12.892 6.138 13.655 6.591 13.914 7.178 C 14.139 7.691 14.139 8.275 13.914 8.787 C 13.655 9.375 12.892 9.828 11.366 10.734 L 4.834 14.613 Z" fill-rule="evenodd"></path></svg>